<mxfile host="app.diagrams.net" modified="2024-01-24T02:30:48.033Z" agent="Mozilla/5.0 (Windows NT 10.0; Win64; x64) AppleWebKit/537.36 (KHTML, like Gecko) Chrome/120.0.0.0 Safari/537.36" etag="EjzTPLTWqoXJrol0QpMZ" version="22.1.16" type="github">
  <diagram id="C5RBs43oDa-KdzZeNtuy" name="Page-1">
    <mxGraphModel dx="1050" dy="2929" grid="1" gridSize="10" guides="1" tooltips="1" connect="1" arrows="1" fold="1" page="1" pageScale="1" pageWidth="827" pageHeight="1169" math="0" shadow="0">
      <root>
        <mxCell id="WIyWlLk6GJQsqaUBKTNV-0" />
        <mxCell id="WIyWlLk6GJQsqaUBKTNV-1" parent="WIyWlLk6GJQsqaUBKTNV-0" />
        <mxCell id="BBz3qvnpFqR6W8-r3lsD-0" value="User" style="swimlane;fontStyle=1;align=center;verticalAlign=top;childLayout=stackLayout;horizontal=1;startSize=26;horizontalStack=0;resizeParent=1;resizeParentMax=0;resizeLast=0;collapsible=1;marginBottom=0;whiteSpace=wrap;html=1;" vertex="1" parent="WIyWlLk6GJQsqaUBKTNV-1">
          <mxGeometry x="570" y="-1760" width="160" height="240" as="geometry" />
        </mxCell>
        <mxCell id="BBz3qvnpFqR6W8-r3lsD-1" value="+ Email&amp;nbsp;" style="text;strokeColor=none;fillColor=none;align=left;verticalAlign=top;spacingLeft=4;spacingRight=4;overflow=hidden;rotatable=0;points=[[0,0.5],[1,0.5]];portConstraint=eastwest;whiteSpace=wrap;html=1;" vertex="1" parent="BBz3qvnpFqR6W8-r3lsD-0">
          <mxGeometry y="26" width="160" height="26" as="geometry" />
        </mxCell>
        <mxCell id="BBz3qvnpFqR6W8-r3lsD-2" value="" style="line;strokeWidth=1;fillColor=none;align=left;verticalAlign=middle;spacingTop=-1;spacingLeft=3;spacingRight=3;rotatable=0;labelPosition=right;points=[];portConstraint=eastwest;strokeColor=inherit;" vertex="1" parent="BBz3qvnpFqR6W8-r3lsD-0">
          <mxGeometry y="52" width="160" height="8" as="geometry" />
        </mxCell>
        <mxCell id="BBz3qvnpFqR6W8-r3lsD-3" value="+ Fullname" style="text;strokeColor=none;fillColor=none;align=left;verticalAlign=top;spacingLeft=4;spacingRight=4;overflow=hidden;rotatable=0;points=[[0,0.5],[1,0.5]];portConstraint=eastwest;whiteSpace=wrap;html=1;" vertex="1" parent="BBz3qvnpFqR6W8-r3lsD-0">
          <mxGeometry y="60" width="160" height="26" as="geometry" />
        </mxCell>
        <mxCell id="BBz3qvnpFqR6W8-r3lsD-4" value="+ ScreenName" style="text;strokeColor=none;fillColor=none;align=left;verticalAlign=top;spacingLeft=4;spacingRight=4;overflow=hidden;rotatable=0;points=[[0,0.5],[1,0.5]];portConstraint=eastwest;whiteSpace=wrap;html=1;" vertex="1" parent="BBz3qvnpFqR6W8-r3lsD-0">
          <mxGeometry y="86" width="160" height="26" as="geometry" />
        </mxCell>
        <mxCell id="BBz3qvnpFqR6W8-r3lsD-5" value="+ DateOfBirth" style="text;strokeColor=none;fillColor=none;align=left;verticalAlign=top;spacingLeft=4;spacingRight=4;overflow=hidden;rotatable=0;points=[[0,0.5],[1,0.5]];portConstraint=eastwest;whiteSpace=wrap;html=1;" vertex="1" parent="BBz3qvnpFqR6W8-r3lsD-0">
          <mxGeometry y="112" width="160" height="26" as="geometry" />
        </mxCell>
        <mxCell id="BBz3qvnpFqR6W8-r3lsD-6" value="&amp;nbsp;+ Gender" style="text;strokeColor=none;fillColor=none;align=left;verticalAlign=top;spacingLeft=4;spacingRight=4;overflow=hidden;rotatable=0;points=[[0,0.5],[1,0.5]];portConstraint=eastwest;whiteSpace=wrap;html=1;" vertex="1" parent="BBz3qvnpFqR6W8-r3lsD-0">
          <mxGeometry y="138" width="160" height="26" as="geometry" />
        </mxCell>
        <mxCell id="BBz3qvnpFqR6W8-r3lsD-7" value="&amp;nbsp;+ Status" style="text;strokeColor=none;fillColor=none;align=left;verticalAlign=top;spacingLeft=4;spacingRight=4;overflow=hidden;rotatable=0;points=[[0,0.5],[1,0.5]];portConstraint=eastwest;whiteSpace=wrap;html=1;" vertex="1" parent="BBz3qvnpFqR6W8-r3lsD-0">
          <mxGeometry y="164" width="160" height="26" as="geometry" />
        </mxCell>
        <mxCell id="BBz3qvnpFqR6W8-r3lsD-8" value="+ Location" style="text;strokeColor=none;fillColor=none;align=left;verticalAlign=top;spacingLeft=4;spacingRight=4;overflow=hidden;rotatable=0;points=[[0,0.5],[1,0.5]];portConstraint=eastwest;whiteSpace=wrap;html=1;" vertex="1" parent="BBz3qvnpFqR6W8-r3lsD-0">
          <mxGeometry y="190" width="160" height="26" as="geometry" />
        </mxCell>
        <mxCell id="BBz3qvnpFqR6W8-r3lsD-9" value="+ VÃ­ibilityLevel" style="text;strokeColor=none;fillColor=none;align=left;verticalAlign=top;spacingLeft=4;spacingRight=4;overflow=hidden;rotatable=0;points=[[0,0.5],[1,0.5]];portConstraint=eastwest;whiteSpace=wrap;html=1;" vertex="1" parent="BBz3qvnpFqR6W8-r3lsD-0">
          <mxGeometry y="216" width="160" height="24" as="geometry" />
        </mxCell>
        <mxCell id="BBz3qvnpFqR6W8-r3lsD-14" value="" style="endArrow=none;html=1;rounded=0;entryX=0.543;entryY=1.092;entryDx=0;entryDy=0;entryPerimeter=0;endFill=0;" edge="1" parent="WIyWlLk6GJQsqaUBKTNV-1" target="BBz3qvnpFqR6W8-r3lsD-9">
          <mxGeometry relative="1" as="geometry">
            <mxPoint x="730" y="-1690" as="sourcePoint" />
            <mxPoint x="780" y="-1480" as="targetPoint" />
            <Array as="points">
              <mxPoint x="780" y="-1690" />
              <mxPoint x="780" y="-1660" />
              <mxPoint x="780" y="-1480" />
              <mxPoint x="657" y="-1480" />
            </Array>
          </mxGeometry>
        </mxCell>
        <mxCell id="BBz3qvnpFqR6W8-r3lsD-16" value="FriendShip" style="swimlane;fontStyle=1;align=center;verticalAlign=top;childLayout=stackLayout;horizontal=1;startSize=26;horizontalStack=0;resizeParent=1;resizeParentMax=0;resizeLast=0;collapsible=1;marginBottom=0;whiteSpace=wrap;html=1;" vertex="1" parent="WIyWlLk6GJQsqaUBKTNV-1">
          <mxGeometry x="780" y="-1640" width="80" height="60" as="geometry" />
        </mxCell>
        <mxCell id="BBz3qvnpFqR6W8-r3lsD-18" value="" style="line;strokeWidth=1;fillColor=none;align=left;verticalAlign=middle;spacingTop=-1;spacingLeft=3;spacingRight=3;rotatable=0;labelPosition=right;points=[];portConstraint=eastwest;strokeColor=inherit;" vertex="1" parent="BBz3qvnpFqR6W8-r3lsD-16">
          <mxGeometry y="26" width="80" height="8" as="geometry" />
        </mxCell>
        <mxCell id="BBz3qvnpFqR6W8-r3lsD-19" value="+ StartDate" style="text;strokeColor=none;fillColor=none;align=left;verticalAlign=top;spacingLeft=4;spacingRight=4;overflow=hidden;rotatable=0;points=[[0,0.5],[1,0.5]];portConstraint=eastwest;whiteSpace=wrap;html=1;" vertex="1" parent="BBz3qvnpFqR6W8-r3lsD-16">
          <mxGeometry y="34" width="80" height="26" as="geometry" />
        </mxCell>
        <mxCell id="BBz3qvnpFqR6W8-r3lsD-20" value="0..N" style="text;align=center;fontStyle=1;verticalAlign=middle;spacingLeft=3;spacingRight=3;strokeColor=none;rotatable=0;points=[[0,0.5],[1,0.5]];portConstraint=eastwest;html=1;" vertex="1" parent="WIyWlLk6GJQsqaUBKTNV-1">
          <mxGeometry x="710" y="-1717" width="80" height="26" as="geometry" />
        </mxCell>
        <mxCell id="BBz3qvnpFqR6W8-r3lsD-21" value="0..N" style="text;align=center;fontStyle=1;verticalAlign=middle;spacingLeft=3;spacingRight=3;strokeColor=none;rotatable=0;points=[[0,0.5],[1,0.5]];portConstraint=eastwest;html=1;" vertex="1" parent="WIyWlLk6GJQsqaUBKTNV-1">
          <mxGeometry x="640" y="-1507" width="80" height="26" as="geometry" />
        </mxCell>
        <mxCell id="BBz3qvnpFqR6W8-r3lsD-22" value="Posts" style="swimlane;fontStyle=1;align=center;verticalAlign=top;childLayout=stackLayout;horizontal=1;startSize=26;horizontalStack=0;resizeParent=1;resizeParentMax=0;resizeLast=0;collapsible=1;marginBottom=0;whiteSpace=wrap;html=1;" vertex="1" parent="WIyWlLk6GJQsqaUBKTNV-1">
          <mxGeometry x="130" y="-1760" width="160" height="138" as="geometry" />
        </mxCell>
        <mxCell id="BBz3qvnpFqR6W8-r3lsD-23" value="+ PostID" style="text;strokeColor=none;fillColor=none;align=left;verticalAlign=top;spacingLeft=4;spacingRight=4;overflow=hidden;rotatable=0;points=[[0,0.5],[1,0.5]];portConstraint=eastwest;whiteSpace=wrap;html=1;" vertex="1" parent="BBz3qvnpFqR6W8-r3lsD-22">
          <mxGeometry y="26" width="160" height="26" as="geometry" />
        </mxCell>
        <mxCell id="BBz3qvnpFqR6W8-r3lsD-24" value="" style="line;strokeWidth=1;fillColor=none;align=left;verticalAlign=middle;spacingTop=-1;spacingLeft=3;spacingRight=3;rotatable=0;labelPosition=right;points=[];portConstraint=eastwest;strokeColor=inherit;" vertex="1" parent="BBz3qvnpFqR6W8-r3lsD-22">
          <mxGeometry y="52" width="160" height="8" as="geometry" />
        </mxCell>
        <mxCell id="BBz3qvnpFqR6W8-r3lsD-27" value="" style="endArrow=none;html=1;rounded=0;entryX=0;entryY=0.5;entryDx=0;entryDy=0;strokeWidth=2;endFill=0;" edge="1" parent="BBz3qvnpFqR6W8-r3lsD-22" target="BBz3qvnpFqR6W8-r3lsD-31">
          <mxGeometry relative="1" as="geometry">
            <mxPoint y="60" as="sourcePoint" />
            <mxPoint x="80" y="160" as="targetPoint" />
            <Array as="points">
              <mxPoint x="-80" y="60" />
              <mxPoint x="-80" y="190" />
              <mxPoint y="190" />
              <mxPoint x="20" y="190" />
              <mxPoint x="70" y="190" />
            </Array>
          </mxGeometry>
        </mxCell>
        <mxCell id="BBz3qvnpFqR6W8-r3lsD-28" value="ChildOf" style="edgeLabel;resizable=0;html=1;align=center;verticalAlign=middle;rotation=0;fontSize=21;" connectable="0" vertex="1" parent="BBz3qvnpFqR6W8-r3lsD-27">
          <mxGeometry relative="1" as="geometry" />
        </mxCell>
        <mxCell id="BBz3qvnpFqR6W8-r3lsD-25" value="+ Body&lt;br&gt;" style="text;strokeColor=none;fillColor=none;align=left;verticalAlign=top;spacingLeft=4;spacingRight=4;overflow=hidden;rotatable=0;points=[[0,0.5],[1,0.5]];portConstraint=eastwest;whiteSpace=wrap;html=1;" vertex="1" parent="BBz3qvnpFqR6W8-r3lsD-22">
          <mxGeometry y="60" width="160" height="26" as="geometry" />
        </mxCell>
        <mxCell id="BBz3qvnpFqR6W8-r3lsD-26" value="+ TimeStamp" style="text;strokeColor=none;fillColor=none;align=left;verticalAlign=top;spacingLeft=4;spacingRight=4;overflow=hidden;rotatable=0;points=[[0,0.5],[1,0.5]];portConstraint=eastwest;whiteSpace=wrap;html=1;" vertex="1" parent="BBz3qvnpFqR6W8-r3lsD-22">
          <mxGeometry y="86" width="160" height="26" as="geometry" />
        </mxCell>
        <mxCell id="BBz3qvnpFqR6W8-r3lsD-56" value="+ LikeCount" style="text;strokeColor=none;fillColor=none;align=left;verticalAlign=top;spacingLeft=4;spacingRight=4;overflow=hidden;rotatable=0;points=[[0,0.5],[1,0.5]];portConstraint=eastwest;whiteSpace=wrap;html=1;" vertex="1" parent="BBz3qvnpFqR6W8-r3lsD-22">
          <mxGeometry y="112" width="160" height="26" as="geometry" />
        </mxCell>
        <mxCell id="BBz3qvnpFqR6W8-r3lsD-30" value="0..N" style="text;html=1;strokeColor=none;fillColor=none;align=center;verticalAlign=middle;whiteSpace=wrap;rounded=0;" vertex="1" parent="WIyWlLk6GJQsqaUBKTNV-1">
          <mxGeometry x="80" y="-1728" width="60" height="30" as="geometry" />
        </mxCell>
        <mxCell id="BBz3qvnpFqR6W8-r3lsD-31" value="1..1" style="text;html=1;strokeColor=none;fillColor=none;align=center;verticalAlign=middle;whiteSpace=wrap;rounded=0;" vertex="1" parent="WIyWlLk6GJQsqaUBKTNV-1">
          <mxGeometry x="200" y="-1630" width="60" height="30" as="geometry" />
        </mxCell>
        <mxCell id="BBz3qvnpFqR6W8-r3lsD-33" value="" style="endArrow=none;html=1;rounded=0;exitX=1;exitY=0.5;exitDx=0;exitDy=0;startArrow=classic;startFill=1;endFill=0;" edge="1" parent="WIyWlLk6GJQsqaUBKTNV-1" source="BBz3qvnpFqR6W8-r3lsD-23">
          <mxGeometry relative="1" as="geometry">
            <mxPoint x="470" y="-1718" as="sourcePoint" />
            <mxPoint x="570" y="-1718" as="targetPoint" />
          </mxGeometry>
        </mxCell>
        <mxCell id="BBz3qvnpFqR6W8-r3lsD-34" value="ResponseBy" style="edgeLabel;resizable=0;html=1;align=center;verticalAlign=middle;fontSize=21;" connectable="0" vertex="1" parent="BBz3qvnpFqR6W8-r3lsD-33">
          <mxGeometry relative="1" as="geometry">
            <mxPoint x="1" as="offset" />
          </mxGeometry>
        </mxCell>
        <mxCell id="BBz3qvnpFqR6W8-r3lsD-35" value="1..1" style="text;html=1;strokeColor=none;fillColor=none;align=center;verticalAlign=middle;whiteSpace=wrap;rounded=0;" vertex="1" parent="WIyWlLk6GJQsqaUBKTNV-1">
          <mxGeometry x="510" y="-1747" width="60" height="30" as="geometry" />
        </mxCell>
        <mxCell id="BBz3qvnpFqR6W8-r3lsD-36" value="0..N" style="text;html=1;strokeColor=none;fillColor=none;align=center;verticalAlign=middle;whiteSpace=wrap;rounded=0;" vertex="1" parent="WIyWlLk6GJQsqaUBKTNV-1">
          <mxGeometry x="290" y="-1747" width="60" height="30" as="geometry" />
        </mxCell>
        <mxCell id="BBz3qvnpFqR6W8-r3lsD-39" value="" style="endArrow=none;html=1;rounded=0;exitX=1;exitY=0.5;exitDx=0;exitDy=0;startArrow=classic;startFill=1;endFill=0;" edge="1" parent="WIyWlLk6GJQsqaUBKTNV-1" source="BBz3qvnpFqR6W8-r3lsD-26">
          <mxGeometry relative="1" as="geometry">
            <mxPoint x="470" y="-1660" as="sourcePoint" />
            <mxPoint x="570" y="-1660" as="targetPoint" />
          </mxGeometry>
        </mxCell>
        <mxCell id="BBz3qvnpFqR6W8-r3lsD-40" value="Like&amp;nbsp;" style="edgeLabel;resizable=0;html=1;align=center;verticalAlign=middle;fontSize=21;" connectable="0" vertex="1" parent="BBz3qvnpFqR6W8-r3lsD-39">
          <mxGeometry relative="1" as="geometry" />
        </mxCell>
        <mxCell id="BBz3qvnpFqR6W8-r3lsD-41" value="0..N" style="text;html=1;strokeColor=none;fillColor=none;align=center;verticalAlign=middle;whiteSpace=wrap;rounded=0;" vertex="1" parent="WIyWlLk6GJQsqaUBKTNV-1">
          <mxGeometry x="290" y="-1691" width="60" height="30" as="geometry" />
        </mxCell>
        <mxCell id="BBz3qvnpFqR6W8-r3lsD-42" value="0..N" style="text;html=1;strokeColor=none;fillColor=none;align=center;verticalAlign=middle;whiteSpace=wrap;rounded=0;" vertex="1" parent="WIyWlLk6GJQsqaUBKTNV-1">
          <mxGeometry x="510" y="-1691" width="60" height="30" as="geometry" />
        </mxCell>
        <mxCell id="BBz3qvnpFqR6W8-r3lsD-49" value="" style="text;strokeColor=none;fillColor=none;align=left;verticalAlign=middle;spacingTop=-1;spacingLeft=4;spacingRight=4;rotatable=0;labelPosition=right;points=[];portConstraint=eastwest;" vertex="1" parent="WIyWlLk6GJQsqaUBKTNV-1">
          <mxGeometry x="500" y="-1760" width="20" height="14" as="geometry" />
        </mxCell>
        <mxCell id="BBz3qvnpFqR6W8-r3lsD-57" value="" style="endArrow=none;endFill=0;endSize=12;html=1;rounded=0;entryX=1;entryY=0.5;entryDx=0;entryDy=0;" edge="1" parent="WIyWlLk6GJQsqaUBKTNV-1" target="BBz3qvnpFqR6W8-r3lsD-1">
          <mxGeometry width="160" relative="1" as="geometry">
            <mxPoint x="620" y="-1520" as="sourcePoint" />
            <mxPoint x="900" y="-1728" as="targetPoint" />
            <Array as="points">
              <mxPoint x="620" y="-1410" />
              <mxPoint x="920" y="-1410" />
              <mxPoint x="920" y="-1480" />
              <mxPoint x="920" y="-1570" />
              <mxPoint x="920" y="-1650" />
              <mxPoint x="920" y="-1720" />
            </Array>
          </mxGeometry>
        </mxCell>
        <mxCell id="BBz3qvnpFqR6W8-r3lsD-58" value="FriendRequest" style="text;align=center;fontStyle=1;verticalAlign=middle;spacingLeft=3;spacingRight=3;strokeColor=none;rotatable=0;points=[[0,0.5],[1,0.5]];portConstraint=eastwest;html=1;fontSize=18;" vertex="1" parent="WIyWlLk6GJQsqaUBKTNV-1">
          <mxGeometry x="800" y="-1450" width="100" height="46" as="geometry" />
        </mxCell>
        <mxCell id="BBz3qvnpFqR6W8-r3lsD-59" value="0..N" style="text;align=center;fontStyle=1;verticalAlign=middle;spacingLeft=3;spacingRight=3;strokeColor=none;rotatable=0;points=[[0,0.5],[1,0.5]];portConstraint=eastwest;html=1;" vertex="1" parent="WIyWlLk6GJQsqaUBKTNV-1">
          <mxGeometry x="550" y="-1520" width="80" height="26" as="geometry" />
        </mxCell>
        <mxCell id="BBz3qvnpFqR6W8-r3lsD-60" value="0..N" style="text;align=center;fontStyle=1;verticalAlign=middle;spacingLeft=3;spacingRight=3;strokeColor=none;rotatable=0;points=[[0,0.5],[1,0.5]];portConstraint=eastwest;html=1;" vertex="1" parent="WIyWlLk6GJQsqaUBKTNV-1">
          <mxGeometry x="730" y="-1747" width="80" height="26" as="geometry" />
        </mxCell>
      </root>
    </mxGraphModel>
  </diagram>
</mxfile>
